<svg id="Layer_1" data-name="Layer 1" xmlns="http://www.w3.org/2000/svg" viewBox="0 0 576 576"><defs><style>.cls-1{fill:#bf181d;}.cls-2{fill:#ffbf00;}.cls-3{fill:#3c3e3e;}</style></defs><title>GROWLLY</title><path class="cls-1" d="M539.33,200.68a9.73,9.73,0,1,0,6.33,12.21,9.72,9.72,0,0,0-6.33-12.21"/><polygon class="cls-2" points="493.88 277.68 476.29 235.54 465.41 235.54 487.28 288.09 474.42 308.58 439.37 308.58 439.37 235.54 429.18 235.54 429.18 308.58 391.1 308.58 391.1 235.54 380.91 235.54 380.91 318.88 429.18 318.88 429.53 318.88 467.95 318.88 477.8 318.88 479.53 318.88 538.81 227.63 527 227.63 493.88 277.68"/><path class="cls-3" d="M147.68,279.62c13.78,0,22.11-11.46,22.11-22.57a21.85,21.85,0,0,0-22.23-21.53h-33v83.34h10.18V279.62h3.13l25.58,39.24h12l-25.7-39.24ZM124.76,270V245.36h21.65c7.87,0,13,5.67,13,12a12.5,12.5,0,0,1-13,12.61Z"/><path class="cls-3" d="M210.3,234.83c-23.73,0-41.56,18.52-41.56,42.36,0,23.38,18.18,42.37,41.56,42.37s41.55-19,41.55-42.37-18.17-42.36-41.55-42.36m0,74.42c-17.71,0-31.14-14.35-31.14-32.06s13.43-32.06,31.14-32.06,31.25,14.35,31.25,32.06S228,309.25,210.3,309.25"/><path class="cls-3" d="M338.43,282.75c-4.74,7.4-9.15,14.35-13.77,22.1h-.12c.12-7.75.23-15.51.23-23v-46.3H312.16L281,283.21c-4.52,6.94-9,14.24-13.43,21.64h-.12c.12-6.94.24-16.55.24-23v-46.3H257.52v83.34h12.62l35.42-54.29c3.35-5.21,5.9-9.6,9-15.16h.11c-.23,6.25-.23,11.34-.23,16.78v52.67h12.62l53.82-83.34h-12Z"/><path class="cls-3" d="M109.92,278.06V267.19H66l26.26,41.19H75.13c-18.74,0-34.28-13.32-34.28-33.79s17.27-34.28,34.78-34.28c15.16,0,26.63,7.16,34.27,13.69V240.56c-7-4.69-17.14-11.22-34.27-11.22-23.68,0-45.75,18.74-45.75,45.25,0,26.27,20,44.27,44.88,44.27h36.75l-26.2-40.8Z"/></svg>